<?xml version="1.0" encoding="UTF-8"?>
<svg width="82px" height="70px" viewBox="0 0 82 70" version="1.1" xmlns="http://www.w3.org/2000/svg" xmlns:xlink="http://www.w3.org/1999/xlink">
    <!-- Generator: sketchtool 41.2 (35397) - http://www.bohemiancoding.com/sketch -->
    <title>06C6DCA0-E925-47C1-B5AE-DCDD92B2756A</title>
    <desc>Created with sketchtool.</desc>
    <defs></defs>
    <g id="Page-2" stroke="none" stroke-width="1" fill="none" fill-rule="evenodd">
        <g id="Artboard-Copy" transform="translate(-1351.000000, -615.000000)">
            <g id="cloudy" transform="translate(1351.000000, 615.000000)">
                <g id="Layer_1">
                    <g id="Group" fill="#FFC61B">
                        <path d="M29.1841523,11.1495872 C27.9576758,11.1495872 26.9634258,10.1528899 26.9634258,8.9233945 L26.9634258,2.36651376 C26.9634258,1.13701835 27.9576758,0.140321101 29.1841523,0.140321101 C30.4106289,0.140321101 31.4048789,1.13701835 31.4048789,2.36651376 L31.4048789,8.9237156 C31.4048789,10.1528899 30.4106289,11.1495872 29.1841523,11.1495872 Z" id="Shape"></path>
                        <path d="M43.6249609,17.1459862 C43.0564062,17.1459862 42.488332,16.9287615 42.0546289,16.4939908 C41.1873828,15.6246101 41.1873828,14.2149771 42.0546289,13.3454358 L43.4508711,11.9457569 C44.3182773,11.0763761 45.7241289,11.0763761 46.5916953,11.9457569 C47.4589414,12.8151376 47.4589414,14.2247706 46.5916953,15.0943119 L45.1954531,16.4939908 C44.7615898,16.9286009 44.1935156,17.1459862 43.6249609,17.1459862 Z" id="Shape"></path>
                        <path d="M13.3471016,47.4983716 C12.7788672,47.4983716 12.2104727,47.2811468 11.7767695,46.8463761 C10.9095234,45.9769954 10.9093633,44.5673624 11.7767695,43.6979817 L13.1730117,42.2981422 C14.0402578,41.4287615 15.4464297,41.4286009 16.3136758,42.2981422 C17.1809219,43.1676835 17.181082,44.577156 16.3136758,45.4465367 L14.9174336,46.8463761 C14.4838906,47.2809862 13.9153359,47.4983716 13.3471016,47.4983716 Z" id="Shape"></path>
                        <path d="M14.7433437,17.1459862 C14.1751094,17.1459862 13.6065547,16.9287615 13.1730117,16.4939908 L11.7767695,15.0943119 C10.9095234,14.2249312 10.9095234,12.8152982 11.7767695,11.9457569 C12.6440156,11.0762156 14.0501875,11.0763761 14.9175938,11.9457569 L16.3138359,13.3454358 C17.181082,14.2148165 17.181082,15.6244495 16.3138359,16.4939908 C15.8801328,16.9286009 15.3115781,17.1459862 14.7433437,17.1459862 Z" id="Shape"></path>
                        <path d="M8.76182813,31.6223394 L2.22072656,31.6223394 C0.99425,31.6223394 0,30.6256422 0,29.3959862 C0,28.1664908 0.99425,27.1697936 2.22072656,27.1697936 L8.76182813,27.1697936 C9.98830469,27.1697936 10.9825547,28.1664908 10.9825547,29.3959862 C10.9827148,30.6256422 9.98846484,31.6223394 8.76182813,31.6223394 Z" id="Shape"></path>
                        <path d="M49.8801836,69.8580734 L26.5569492,69.8580734 C19.9176719,69.8580734 14.516082,64.4431881 14.516082,57.7874083 C14.516082,56.5579128 15.510332,55.5612156 16.7368086,55.5612156 C17.9632852,55.5612156 18.9575352,56.5579128 18.9575352,57.7874083 C18.9575352,61.9880505 22.3666211,65.4056881 26.5567891,65.4056881 L49.8798633,65.4056881 C51.1061797,65.4056881 52.1005898,66.4023853 52.1005898,67.6318807 C52.1005898,68.8613761 51.1065,69.8580734 49.8801836,69.8580734 Z" id="Shape"></path>
                    </g>
                    <path d="M23.9172539,42.5763761 C24.0695625,42.1053211 24.2454141,41.645344 24.4428867,41.1966055 C24.5719727,40.9034404 24.7101875,40.6155734 24.8575312,40.332844 C25.0034336,40.0525229 25.1551016,39.7755734 25.3183008,39.5061697 C25.9278555,38.5003211 26.6552852,37.573945 27.4807305,36.7464679 C30.1225078,34.0981881 33.7724688,32.4597706 37.804082,32.4597706 C38.0537656,32.4597706 38.3020078,32.4661927 38.5484883,32.4787156 C38.680457,32.4854587 38.8103438,32.4981422 38.9413516,32.5082569 C39.054582,32.5169266 39.1686133,32.5227064 39.2808828,32.5341055 C39.4636211,32.5525688 39.6445977,32.5774541 39.8254141,32.6026606 C39.8833906,32.6106881 39.9424883,32.6163073 40.0001445,32.6249771 C40.2121914,32.6570872 40.4221563,32.6952982 40.6308398,32.7365596 C40.6561445,32.7415367 40.6819297,32.7450688 40.7070742,32.7502064 C40.9360977,32.796445 41.1630391,32.8487844 41.3882188,32.9057798 C41.3927031,32.9069037 41.3968672,32.9077064 41.4013516,32.9088303 C41.8736523,33.0287615 42.3369844,33.1714908 42.7897461,33.3365367 C44.169332,28.5330275 42.9734453,23.1430275 39.1979219,19.358211 C33.6675664,13.8142431 24.7010586,13.8142431 19.1707031,19.358211 C13.6403477,24.9021789 13.6403477,33.8907569 19.1707031,39.4347248 C20.569668,40.8369725 22.1893281,41.8832798 23.9172539,42.5763761 Z" id="Shape" fill="#FEE187"></path>
                    <path d="M75.4417617,47.0417661 C76.0173633,45.2304358 76.3080469,43.3462156 76.3080469,41.4155963 C76.3080469,31.1593119 67.9844063,22.8150229 57.7529844,22.8150229 C53.1470508,22.8150229 48.7935234,24.5240826 45.4518633,27.4897706 C45.0296914,23.8759404 43.4175586,20.4401606 40.7677734,17.7838532 C37.6735547,14.6820183 33.5596211,12.9737615 29.1836719,12.9737615 C24.8077227,12.9737615 20.6937891,14.6820183 17.5997305,17.7838532 C14.5056719,20.8856881 12.8014492,25.0097477 12.8014492,29.3963073 C12.8014492,33.782867 14.5055117,37.9070872 17.5997305,41.008922 C18.709293,42.1212156 19.9533867,43.0511239 21.3091094,43.7954358 C21.0970625,44.8630963 20.9835117,45.966078 20.9835117,47.0953899 C20.9835117,47.6256881 21.0100977,48.172844 21.0627891,48.7220872 C21.1798633,49.9461239 22.265082,50.8426376 23.4856328,50.7254358 C24.7066641,50.6080734 25.6011367,49.5206651 25.4840625,48.2966284 C25.4449844,47.8883486 25.4252852,47.4842431 25.4252852,47.0953899 C25.4252852,45.6904128 25.6626367,44.3408257 26.0939375,43.0808257 C26.1317344,42.9702064 26.1696914,42.8595872 26.2106914,42.7491284 C26.2438438,42.6605046 26.2795586,42.5730046 26.3146328,42.4855046 C26.3546719,42.3854817 26.3945508,42.2856193 26.4371523,42.1870413 C28.1786914,38.1496789 31.9982578,35.2156193 36.5372461,34.7509862 C36.5498984,34.7497018 36.5627109,34.7492202 36.5753633,34.7479358 C36.7677109,34.7288303 36.9611797,34.713578 37.1559297,34.7036239 C37.2444961,34.6991284 37.3338633,34.6989679 37.4225898,34.6962385 C37.5447891,34.6923853 37.666668,34.6870872 37.789668,34.6869266 C37.9981914,34.6869266 38.2076758,34.6920642 38.4176406,34.7023394 C38.4226055,34.7025 38.4275703,34.7025 38.4326953,34.7028211 C38.4719336,34.7047477 38.5106914,34.7090826 38.5499297,34.7114908 C38.7204961,34.7217661 38.8904219,34.7333257 39.0589062,34.7505046 C39.0766836,34.7522706 39.0941406,34.7551606 39.111918,34.7569266 C39.1743789,34.7638303 39.2352383,34.7723394 39.2968984,34.780367 C39.4243828,34.7957798 39.5523477,34.8097477 39.6787109,34.8291743 C39.6908828,34.8309404 39.7028945,34.8336697 39.7150664,34.8354358 C39.7410117,34.8394495 39.7663164,34.8447477 39.7924219,34.8492431 C39.9589844,34.8763761 40.1250664,34.904633 40.2892266,34.9385092 C40.3054023,34.9418807 40.321418,34.946055 40.3375938,34.9494266 C40.5225742,34.9881193 40.7064336,35.0301835 40.8885312,35.0772248 C40.9011836,35.0805963 40.9138359,35.0846101 40.9264883,35.0876606 C41.1114688,35.1359862 41.2953281,35.1880046 41.4769453,35.2446789 C41.4860742,35.2475688 41.4948828,35.2509404 41.5038516,35.2535092 C46.5274727,36.834289 50.181918,41.5451606 50.181918,47.0958716 C50.181918,48.325367 51.1763281,49.3220642 52.4026445,49.3220642 C53.6289609,49.3220642 54.6233711,48.325367 54.6233711,47.0958716 C54.6233711,41.0325229 51.4130391,35.7081881 46.6081914,32.7365596 C49.2589375,29.3187615 53.354293,27.2685321 57.7526641,27.2685321 C65.5349766,27.2685321 71.8661133,33.6152523 71.8661133,41.4165596 C71.8661133,43.4884633 71.4263242,45.4890826 70.558918,47.3627064 C70.2839297,47.956422 70.2837695,48.6411697 70.557957,49.2352064 C70.8321445,49.8292431 71.3534531,50.2720413 71.9828672,50.4457569 C75.2651094,51.3530275 77.5577461,54.3723394 77.5577461,57.788211 C77.5577461,61.9888532 74.1486602,65.4064908 69.9581719,65.4064908 L63.1704297,65.4064908 C61.9441133,65.4064908 60.9497031,66.4031881 60.9497031,67.6326835 C60.9497031,68.8621789 61.9441133,69.8588761 63.1704297,69.8588761 L69.9581719,69.8588761 C76.5974492,69.8588761 81.9991992,64.4439908 81.9991992,57.788211 C82,53.2057798 79.3968203,49.0743349 75.4417617,47.0417661 Z M17.2433828,29.3959862 C17.2433828,26.1986239 18.4853945,23.1927982 20.740875,20.9320872 C22.9960352,18.671055 25.9946406,17.4259862 29.1839922,17.4259862 C32.3733437,17.4259862 35.3719492,18.671055 37.6271094,20.9320872 C40.1743945,23.4853211 41.4071172,27.0273853 41.0675859,30.5530734 C41.0605391,30.551789 41.0531719,30.5506651 41.0458047,30.5492202 C40.9008633,30.5206422 40.7556016,30.4935092 40.6096992,30.4687844 C40.5293008,30.4549771 40.451625,30.4422936 40.3758711,30.4305734 C40.3678633,30.429289 40.3598555,30.4281651 40.3518477,30.4267202 C40.3459219,30.4257569 40.3393555,30.4247936 40.3334297,30.4238303 C40.3191758,30.4215826 40.3046016,30.4199771 40.2901875,30.4180505 C40.0376211,30.3804817 39.7845742,30.3477294 39.5297656,30.3217202 C39.5227187,30.321078 39.5153516,30.3204358 39.5081445,30.3197936 C39.5068633,30.319633 39.5057422,30.3193119 39.5043008,30.3193119 C39.4863633,30.3175459 39.4682656,30.3165826 39.4503281,30.3148165 C39.22675,30.2929817 39.0022109,30.2762844 38.7770312,30.2634404 C38.7602148,30.2623165 38.7432383,30.260711 38.7261016,30.2599083 C38.7043203,30.2587844 38.6830195,30.2563761 38.6612383,30.2552523 L38.6601172,30.2552523 C38.6324102,30.2539679 38.6043828,30.254289 38.5763555,30.2530046 C38.3194648,30.241445 38.0620937,30.2334174 37.8032812,30.2334174 C37.5162812,30.2334174 37.2307227,30.2409633 36.9462852,30.2552523 C36.9054453,30.2571789 36.8652461,30.2619954 36.8245664,30.2640826 C36.5782461,30.2780505 36.3324062,30.295711 36.0883281,30.3204358 C36.0804805,30.3213991 36.072793,30.3223624 36.0649453,30.3233257 C32.2292031,30.7155505 28.6732539,32.4018119 25.9097578,35.1721101 C24.9563477,36.1280275 24.1184102,37.1972936 23.4196484,38.3505275 C23.2482812,38.6334174 23.0794766,38.9355734 22.88825,39.3024312 C22.8531758,39.3697018 22.818582,39.4372936 22.7843086,39.5055275 C22.049832,39.0375229 21.3666055,38.4879587 20.7402344,37.8600459 C18.4855547,35.5991743 17.2433828,32.5933486 17.2433828,29.3959862 Z" id="Shape" fill="#FFC61B"></path>
                </g>
            </g>
        </g>
    </g>
</svg>