<?xml version="1.0" encoding="UTF-8"?>
<svg width="82px" height="72px" viewBox="0 0 82 72" version="1.1" xmlns="http://www.w3.org/2000/svg" xmlns:xlink="http://www.w3.org/1999/xlink">
    <!-- Generator: sketchtool 41.2 (35397) - http://www.bohemiancoding.com/sketch -->
    <title>F7A4CA77-3E4A-456C-9FAB-CF1AB490DAD1</title>
    <desc>Created with sketchtool.</desc>
    <defs></defs>
    <g id="Page-2" stroke="none" stroke-width="1" fill="none" fill-rule="evenodd">
        <g id="Artboard-Copy" transform="translate(-1531.000000, -102.000000)">
            <g id="cloudy-night" transform="translate(1531.000000, 102.000000)">
                <g id="Layer_1">
                    <path d="M35.8600546,50.44704 C30.3948265,44.97648 28.7346862,37.14048 30.8769162,30.23168 C27.8619376,31.16832 25.0234269,32.82992 22.6361559,35.21968 C14.7836569,43.07984 14.7836569,55.82368 22.6361559,63.68368 C30.488655,71.54384 43.2200741,71.54384 51.0724133,63.68368 C53.4596842,61.29392 55.1196647,58.4528 56.0555517,55.43488 C49.1536452,57.5792 41.3256023,55.9176 35.8600546,50.44704 Z" id="Shape" fill="#FEE187"></path>
                    <g id="Group" fill="#FFC61B">
                        <path d="M73.7363821,29.48752 C74.4937232,27.21936 74.8760702,24.85408 74.8760702,22.4272 C74.8760702,10.09792 64.8552865,0.06768 52.5383431,0.06768 C45.0406979,0.06768 38.0980312,3.82352 33.9722963,9.99136 C33.411883,9.8216 32.8447563,9.68016 32.2726745,9.56048 C32.2207251,9.5496 32.1687758,9.53904 32.1168265,9.52864 C31.830386,9.4712 31.5426667,9.41888 31.2536686,9.37392 C31.2312904,9.3704 31.2089123,9.36608 31.1863743,9.36288 C30.8724405,9.31504 30.5567485,9.27504 30.2399376,9.24208 C30.1863899,9.23648 30.1325224,9.23248 30.0788148,9.2272 C29.8219454,9.20272 29.5642768,9.18288 29.305809,9.16816 C29.2250877,9.16352 29.1446862,9.15872 29.0639649,9.15504 C28.7532281,9.14096 28.441692,9.1312 28.1288772,9.1312 C16.982152,9.1312 7.91387914,18.20848 7.91387914,29.36608 C7.91387914,29.43696 7.91435867,29.508 7.91499805,29.57936 C3.11695906,31.99568 0,36.9576 0,42.4296 C0,50.35968 6.44523197,56.81104 14.3675828,56.81104 L15.6223587,56.81104 C16.7185692,59.98864 18.5288031,62.90112 20.9734581,65.34832 C25.2153996,69.5944 30.8556569,71.9328 36.8544444,71.9328 C42.8537115,71.9328 48.4936491,69.59424 52.7357505,65.348 C55.3054035,62.77584 57.2300858,59.58912 58.3018402,56.13248 C58.5607875,55.29776 58.3362066,54.388 57.7188889,53.77008 C57.1012515,53.15216 56.1918986,52.92736 55.3587914,53.18656 C53.6494191,53.7176 51.8724327,53.98672 50.0765848,53.98672 C45.3346511,53.98672 40.8762807,52.13824 37.5233918,48.78224 C32.8463548,44.1008 31.1603197,37.26 33.1233645,30.92944 C33.3823119,30.09472 33.157731,29.18496 32.5404133,28.56704 C31.9227758,27.9488 31.0143821,27.72384 30.1803158,27.9832 C26.7265653,29.056 23.543271,30.98288 20.9737778,33.55472 C16.7318363,37.8008 14.3957154,43.44656 14.3957154,49.45152 C14.3957154,50.34448 14.4486238,51.22912 14.5504444,52.10272 L14.3679025,52.10272 C9.03918129,52.10288 4.70373099,47.76336 4.70373099,42.4296 C4.70373099,38.3424 7.28888889,34.6784 11.136655,33.312 C12.153423,32.95088 12.7942378,31.94384 12.6912982,30.86896 C12.642386,30.35744 12.6176101,29.85168 12.6176101,29.36608 C12.6176101,20.80464 19.5759415,13.83936 28.1288772,13.83936 C28.3932593,13.83936 28.6557232,13.84624 28.9167485,13.85936 C28.9680585,13.86192 29.0185692,13.86768 29.0695595,13.87072 C29.2810331,13.88336 29.4920273,13.89776 29.7011033,13.91904 C29.7445809,13.92352 29.7875789,13.9304 29.8312164,13.93504 C30.0478051,13.95888 30.2639142,13.98496 30.4777856,14.0176 C30.5095945,14.02256 30.5410838,14.02912 30.5727329,14.03408 C30.7973138,14.06992 31.0209357,14.10864 31.2423197,14.15408 C31.2672554,14.1592 31.2918713,14.1656 31.316807,14.17072 C31.5437856,14.21824 31.7693255,14.26976 31.9927875,14.3272 C32.0153255,14.33312 32.0375439,14.33984 32.0600819,14.34608 C32.2849825,14.40496 32.5081248,14.46784 32.7287096,14.53648 C32.7496491,14.54304 32.7701092,14.55056 32.7910487,14.55712 C33.0137115,14.62752 33.2347758,14.7016 33.4531228,14.78192 C33.4635127,14.78576 33.473423,14.78992 33.483653,14.79376 C39.4063548,16.98096 43.6407836,22.68768 43.6407836,29.36608 C43.6407836,30.66624 44.6939961,31.72016 45.9925692,31.72016 C47.2911423,31.72016 48.3443548,30.66624 48.3443548,29.36608 C48.3443548,21.94496 44.3300312,15.44816 38.3633723,11.9264 C41.664152,7.46512 46.9028811,4.77568 52.5386628,4.77568 C62.2622963,4.77568 70.1726589,12.69408 70.1726589,22.42688 C70.1726589,25.01168 69.6229552,27.50784 68.5393723,29.84576 C68.2484561,30.4736 68.2481365,31.19776 68.5387329,31.82576 C68.8291696,32.45392 69.3811111,32.92208 70.0476608,33.10592 C74.2216686,34.25776 77.1370643,38.09168 77.1370643,42.42928 C77.1370643,47.76304 72.801614,52.1024 67.4730526,52.1024 C66.1743197,52.1024 65.1212671,53.15632 65.1212671,54.45648 C65.1212671,55.75664 66.1744795,56.81056 67.4730526,56.81056 C75.3954035,56.81056 81.8406355,50.35904 81.8406355,42.42912 C81.8401559,36.86416 78.6111462,31.856 73.7363821,29.48752 Z M24.2993333,36.88416 C25.3387992,35.84368 26.4764094,34.9512 27.7038519,34.21152 C27.1119493,40.77296 29.4223353,47.33184 34.197037,52.11168 C38.4383392,56.35712 44.0777973,58.69504 50.076425,58.69504 C50.7476101,58.69504 51.4171969,58.66512 52.0827875,58.60576 C51.3433489,59.83648 50.4507797,60.9768 49.4097154,62.01904 C46.0560273,65.376 41.5973372,67.2248 36.8544444,67.2248 C32.1120312,67.2248 27.6528616,65.37616 24.2993333,62.01936 C20.9456452,58.6624 19.0989669,54.1992 19.0989669,49.45184 C19.0989669,44.70432 20.9459649,40.24128 24.2993333,36.88416 Z" id="Shape"></path>
                        <path d="M54.3255595,38.5896 L52.6793255,38.5896 L52.6793255,36.94176 C52.6793255,35.6416 51.6261131,34.58768 50.32754,34.58768 C49.0289669,34.58768 47.9757544,35.6416 47.9757544,36.94176 L47.9757544,38.5896 L46.3295205,38.5896 C45.0307875,38.5896 43.9777349,39.64352 43.9777349,40.94368 C43.9777349,42.24384 45.0309474,43.29776 46.3295205,43.29776 L47.9757544,43.29776 L47.9757544,44.9456 C47.9757544,46.24576 49.0289669,47.29968 50.32754,47.29968 C51.6261131,47.29968 52.6793255,46.24576 52.6793255,44.9456 L52.6793255,43.29776 L54.3255595,43.29776 C55.6242924,43.29776 56.677345,42.24384 56.677345,40.94368 C56.677345,39.64352 55.6244522,38.5896 54.3255595,38.5896 Z" id="Shape"></path>
                    </g>
                </g>
            </g>
        </g>
    </g>
</svg>