<?xml version="1.0" encoding="UTF-8"?>
<svg width="82px" height="82px" viewBox="0 0 82 82" version="1.1" xmlns="http://www.w3.org/2000/svg" xmlns:xlink="http://www.w3.org/1999/xlink">
    <!-- Generator: sketchtool 41.2 (35397) - http://www.bohemiancoding.com/sketch -->
    <title>DE8E2C60-6DCD-466A-9BC9-EE1717F08779</title>
    <desc>Created with sketchtool.</desc>
    <defs></defs>
    <g id="Page-2" stroke="none" stroke-width="1" fill="none" fill-rule="evenodd">
        <g id="Artboard-Copy" transform="translate(-799.000000, -615.000000)">
            <g id="rain-1" transform="translate(799.000000, 615.000000)">
                <g id="Layer_1">
                    <path d="M73.8805586,29.3314961 C74.6054258,27.1066055 74.9713828,24.7897852 74.9713828,22.4141875 C74.9712227,10.0549297 64.9164531,0 52.5570352,0 C45.081582,0 38.1562656,3.71706641 34.0070977,9.82942969 C33.4800234,9.67423828 32.9475039,9.54323047 32.4103398,9.43176172 C32.3680586,9.42295313 32.3252969,9.41478516 32.2830156,9.40645703 C32.0046641,9.3505625 31.7250313,9.30027344 31.4442773,9.25623047 C31.4037578,9.24982422 31.3632383,9.24261719 31.3227188,9.23653125 C31.0084922,9.189125 30.6928242,9.14844531 30.3757148,9.11577344 C30.3391992,9.11192969 30.3022031,9.10936719 30.2655273,9.10584375 C29.993582,9.07957813 29.7205156,9.05891797 29.4468086,9.04322266 C29.3684922,9.03873828 29.2904961,9.03441406 29.2120195,9.03089063 C28.9008359,9.01663672 28.5890117,9.00702734 28.2754258,9.00702734 C17.0806641,9.00702734 7.97289844,18.114793 7.97289844,29.3095547 C7.97289844,29.3409453 7.97289844,29.3723359 7.97321875,29.4037266 C3.19703906,31.8573203 0.100578125,36.8216836 0.100578125,42.2923008 C0.100578125,50.2796133 6.59875781,56.7776328 14.5859102,56.7776328 L23.2702227,56.7776328 C24.6690273,56.7776328 25.8027734,55.6437266 25.8027734,54.245082 C25.8027734,52.8462773 24.6688672,51.7125312 23.2702227,51.7125312 L14.5860703,51.7125312 C9.39172266,51.7125312 5.16583984,47.4866484 5.16583984,42.2923008 C5.16583984,38.3120977 7.68573828,34.7439766 11.4365977,33.4130781 C12.5314258,33.0245391 13.2218594,31.941082 13.1108711,30.7847539 C13.0628242,30.2817031 13.0381602,29.7853789 13.0381602,29.3095547 C13.0381602,20.9077578 19.8736289,14.0722891 28.2754258,14.0722891 C28.5350391,14.0722891 28.7928906,14.0791758 29.0491406,14.0919883 C29.1000703,14.0945508 29.1505195,14.1001562 29.2011289,14.1031992 C29.4083711,14.1155312 29.6151328,14.1297852 29.8201328,14.1502852 C29.8619336,14.1546094 29.9034141,14.1611758 29.9450547,14.1656602 C30.1588633,14.1888828 30.3718711,14.2148281 30.5827969,14.2470195 C30.6140273,14.2518242 30.6447773,14.2582305 30.6760078,14.2631953 C30.896543,14.2981094 31.1161172,14.3363867 31.3334492,14.3809102 C31.3579531,14.3860352 31.3822969,14.3922812 31.4069609,14.3974062 C31.6298984,14.444332 31.8513945,14.4946211 32.0708086,14.5508359 C32.0922695,14.5564414 32.1135703,14.5630078 32.1348711,14.5686133 C32.3566875,14.6265898 32.5767422,14.6887305 32.7945547,14.7563164 C32.812332,14.7619219 32.8297891,14.768168 32.8474063,14.7737734 C33.0692227,14.8436016 33.2895977,14.9175937 33.5070898,14.9973516 C33.5122148,14.9991133 33.5170195,15.0013555 33.5218242,15.0031172 C39.3465469,17.1460078 43.5126914,22.7500352 43.5126914,29.3092344 C43.5126914,30.7080391 44.6465977,31.8417852 46.0452422,31.8417852 C47.4440469,31.8417852 48.577793,30.7078789 48.577793,29.3092344 C48.577793,21.9410859 44.6317031,15.4783008 38.7427578,11.9202695 C41.9966523,7.63977344 47.0859375,5.06526172 52.5570352,5.06526172 C62.123168,5.06526172 69.9061211,12.8478945 69.9061211,22.4143477 C69.9061211,24.9552266 69.3655938,27.4083398 68.2994336,29.7059414 C67.9858477,30.3813203 67.9856875,31.1604805 68.2986328,31.8361797 C68.6115781,32.5118789 69.2057578,33.0155703 69.9237383,33.2133633 C73.9923477,34.3350977 76.8341602,38.0686602 76.8341602,42.2929414 C76.8341602,47.4872891 72.6082773,51.7131719 67.4139297,51.7131719 L59.1517891,51.7131719 C57.7529844,51.7131719 56.6192383,52.8470781 56.6192383,54.2457227 C56.6192383,55.6445273 57.7531445,56.7782734 59.1517891,56.7782734 L67.4139297,56.7782734 C75.4012422,56.7782734 81.8992617,50.2800937 81.8992617,42.2929414 C81.8992617,36.7446484 78.7103906,31.7468125 73.8805586,29.3314961 Z" id="Shape" fill="#FFC61B"></path>
                    <path d="M48.5974922,58.6098203 C48.5974922,62.8060742 45.1959336,66.2076328 40.9996797,66.2076328 C36.8034258,66.2076328 33.4018672,62.8060742 33.4018672,58.6098203 C33.4018672,51.0120078 40.9996797,46.2845156 40.9996797,46.2845156 C40.9996797,46.2845156 48.5974922,51.0120078 48.5974922,58.6098203 Z" id="Shape" fill="#FEE187"></path>
                    <path d="M40.9998398,68.7398633 C35.4139102,68.7398633 30.8694766,64.1954297 30.8694766,58.6095 C30.8694766,49.7072148 39.3028242,44.3573555 39.6618945,44.1339375 C40.4812539,43.6241602 41.5185859,43.6241602 42.3377852,44.1339375 C42.6966953,44.3573555 51.1302031,49.7072148 51.1302031,58.6095 C51.130043,64.1955898 46.5859297,68.7398633 40.9998398,68.7398633 Z M41.0064062,49.4376719 C39.1303359,51.0052813 35.9345781,54.3070625 35.9345781,58.6095 C35.9345781,61.4024648 38.206875,63.6746016 40.9998398,63.6746016 C43.7928047,63.6746016 46.0651016,61.4023047 46.0651016,58.6095 C46.0647812,54.2747109 42.8845586,50.995832 41.0064062,49.4376719 Z" id="Shape" fill="#FFC61B"></path>
                    <path d="M68.7019063,73.8957734 C68.7019063,76.9728555 66.2073125,79.4674492 63.1302305,79.4674492 C60.0531484,79.4674492 57.5585547,76.9728555 57.5585547,73.8957734 C57.5585547,68.3240977 63.1302305,64.8571953 63.1302305,64.8571953 C63.1302305,64.8571953 68.7019063,68.3239375 68.7019063,73.8957734 Z" id="Shape" fill="#FEE187"></path>
                    <path d="M63.1302305,82 C58.6615508,82 55.0260039,78.3644531 55.0260039,73.8957734 C55.0260039,66.9965625 61.5160156,62.8787852 61.7922852,62.7067773 C62.6113242,62.197 63.6491367,62.197 64.4681758,62.7067773 C64.7444453,62.8787852 71.234457,66.9964023 71.234457,73.8957734 C71.234457,78.3644531 67.5989102,82 63.1302305,82 Z M63.1299102,68.0686484 C61.8425742,69.2432344 60.0911055,71.3156563 60.0911055,73.8956133 C60.0911055,75.5714883 61.4543555,76.9347383 63.1302305,76.9347383 C64.8061055,76.9347383 66.1693555,75.5714883 66.1693555,73.8956133 C66.1693555,71.3167773 64.4193281,69.2451563 63.1299102,68.0686484 Z" id="Shape" fill="#FFC61B"></path>
                    <path d="M24.4409648,73.8957734 C24.4409648,76.9728555 21.9463711,79.4674492 18.8692891,79.4674492 C15.792207,79.4674492 13.2976133,76.9728555 13.2976133,73.8957734 C13.2976133,68.3240977 18.8692891,64.8571953 18.8692891,64.8571953 C18.8692891,64.8571953 24.4409648,68.3239375 24.4409648,73.8957734 Z" id="Shape" fill="#FEE187"></path>
                    <path d="M18.8692891,82 C14.4006094,82 10.7650625,78.3644531 10.7650625,73.8957734 C10.7650625,66.9965625 17.2550742,62.8787852 17.5313437,62.7067773 C18.3503828,62.197 19.3881953,62.197 20.2072344,62.7067773 C20.4835039,62.8787852 26.9735156,66.9964023 26.9735156,73.8957734 C26.9738359,78.3644531 23.3381289,82 18.8692891,82 Z M18.8689688,68.0686484 C17.5816328,69.2432344 15.8301641,71.3156563 15.8301641,73.8956133 C15.8301641,75.5714883 17.1934141,76.9347383 18.8692891,76.9347383 C20.5451641,76.9347383 21.9084141,75.5714883 21.9084141,73.8956133 C21.9085742,71.3167773 20.1583867,69.2451563 18.8689688,68.0686484 Z" id="Shape" fill="#FFC61B"></path>
                </g>
            </g>
        </g>
    </g>
</svg>