<?xml version="1.0" encoding="UTF-8"?>
<svg width="73px" height="82px" viewBox="0 0 73 82" version="1.1" xmlns="http://www.w3.org/2000/svg" xmlns:xlink="http://www.w3.org/1999/xlink">
    <!-- Generator: sketchtool 41.2 (35397) - http://www.bohemiancoding.com/sketch -->
    <title>DEA701BF-B962-4297-B35A-206F98091200</title>
    <desc>Created with sketchtool.</desc>
    <defs></defs>
    <g id="Page-2" stroke="none" stroke-width="1" fill="none" fill-rule="evenodd">
        <g id="Artboard-Copy" transform="translate(-606.000000, -278.000000)">
            <g id="snowflake" transform="translate(606.000000, 278.000000)">
                <g id="Layer_1">
                    <polygon id="Shape" fill="#FEE187" points="36.5003188 32.3086406 45.1503406 25.945793 43.9914258 36.6543203 53.8002031 41 43.9914258 45.346 45.1503406 56.054207 36.5003188 49.6916797 27.8506157 56.054207 29.0093712 45.346 19.2005939 41 29.0093712 36.6543203 27.8506157 25.945793"></polygon>
                    <g id="Group" fill="#FFC61B">
                        <path d="M45.1505,58.2300898 C44.6994301,58.2300898 44.2502729,58.088832 43.8710873,57.81 L36.5003188,52.3883906 L29.1295502,57.81 C28.4373253,58.319457 27.5107991,58.3699062 26.7677293,57.9386055 C26.0245,57.507625 25.6048297,56.6760938 25.6977533,55.8190977 L26.6851659,46.6941953 L18.3268253,42.9910625 C17.5418362,42.6432031 17.0351397,41.8622812 17.0351397,41.0001602 C17.0351397,40.1380391 17.5418362,39.3571172 18.3268253,39.0092578 L26.6851659,35.306125 L25.6977533,26.1812227 C25.6051485,25.3240664 26.0246594,24.4926953 26.7677293,24.0617148 C27.5106397,23.6304141 28.4371659,23.6808633 29.1295502,24.1903203 L36.5003188,29.6119297 L43.8710873,24.1903203 C44.5633122,23.6808633 45.4898384,23.6304141 46.2329083,24.0617148 C46.9761376,24.4926953 47.3958079,25.3242266 47.3028843,26.1812227 L46.3154716,35.306125 L54.6738122,39.0092578 C55.4588013,39.3571172 55.9654978,40.1380391 55.9654978,41.0001602 C55.9654978,41.8622812 55.4588013,42.6432031 54.6738122,42.9910625 L46.3154716,46.6941953 L47.3028843,55.8190977 C47.3954891,56.6762539 46.9759782,57.507625 46.2329083,57.9386055 C45.896917,58.1336758 45.5229913,58.2300898 45.1505,58.2300898 Z M36.5003188,47.5157969 C36.949476,47.5157969 37.3984738,47.6559336 37.7794127,47.9358867 L42.4665546,51.3835703 L41.8385633,45.5811094 C41.7365546,44.6382695 42.2539301,43.7375508 43.1176572,43.3549375 L48.432631,41.0001602 L43.1176572,38.6453828 C42.2540895,38.2629297 41.7365546,37.3620508 41.8385633,36.4192109 L42.4665546,30.61675 L37.7794127,34.0644336 C37.0178537,34.6246602 35.9827838,34.6246602 35.2213843,34.0644336 L30.5342424,30.61675 L31.1622336,36.4192109 C31.2642424,37.3620508 30.7468668,38.2627695 29.8831397,38.6453828 L24.5681659,41.0001602 L29.8831397,43.3549375 C30.7467074,43.7373906 31.2642424,44.6382695 31.1622336,45.5811094 L30.5342424,51.3835703 L35.2213843,47.9358867 C35.6021638,47.6559336 36.0511616,47.5157969 36.5003188,47.5157969 Z" id="Shape"></path>
                        <path d="M40.5645699,15.0974492 L38.6659323,16.9030508 L38.6659323,12.2940742 C41.0813079,11.4044062 42.809559,9.07092969 42.809559,6.33946484 C42.8093996,2.84389453 39.9791354,0 36.5003188,0 C33.0215022,0 30.191238,2.84389453 30.191238,6.33930469 C30.191238,9.07076953 31.9194891,11.4044062 34.3348646,12.2939141 L34.3348646,16.9028906 L32.4362271,15.0972891 C31.5673996,14.2713633 30.1966572,14.3091602 29.3748493,15.1821719 C28.5528821,16.0548633 28.5904978,17.4320469 29.4593253,18.258293 L35.0119476,23.5383242 C35.4293865,23.9353516 35.9649323,24.1339453 36.5004782,24.1339453 C37.036024,24.1339453 37.5715699,23.9355117 37.9890087,23.5383242 L43.541631,18.258293 C44.4101397,17.4323672 44.4480742,16.0551836 43.626107,15.1821719 C42.803821,14.3096406 41.433238,14.2712031 40.5645699,15.0974492 Z M36.5003188,4.35176563 C37.5910153,4.35176563 38.4784913,5.24351563 38.4784913,6.33930469 C38.4784913,7.37455469 37.6863297,8.22674609 36.6791528,8.317875 C36.6200197,8.31307031 36.5607271,8.30874609 36.5004782,8.30874609 C36.4402293,8.30874609 36.3807773,8.31291016 36.3218035,8.317875 C35.3146266,8.22674609 34.5224651,7.374875 34.5224651,6.33930469 C34.5221463,5.24351563 35.4096223,4.35176563 36.5003188,4.35176563 Z" id="Shape"></path>
                        <path d="M37.9888493,58.4618359 C37.971476,58.4453398 37.9528275,58.4314062 37.9351354,58.4155508 C37.9075611,58.391207 37.8803057,58.366543 37.8517751,58.3434805 C37.8242009,58.3212187 37.7961485,58.3008789 37.7677773,58.2803789 C37.7400437,58.2601992 37.7126288,58.2398594 37.6837795,58.2211211 C37.6531769,58.2011016 37.6220961,58.1828438 37.5908559,58.1645859 C37.5623253,58.1477695 37.5339541,58.130793 37.5044672,58.115418 C37.4722707,58.0984414 37.4394367,58.0832266 37.4066026,58.0680117 C37.3763188,58.0540781 37.3463537,58.0396641 37.3154323,58.0271719 C37.2822795,58.0137187 37.2488079,58.0018672 37.2150175,57.9901758 C37.1831397,57.9788047 37.1515808,57.9672734 37.1189061,57.9575039 C37.0838406,57.9470938 37.0484563,57.9387656 37.0132314,57.9301172 C36.9811943,57.9222695 36.9497948,57.9137812 36.9172795,57.9075352 C36.8761572,57.8995273 36.8345568,57.894082 36.7929563,57.8883164 C36.7657009,57.8846328 36.7387642,57.879668 36.7113493,57.8767852 C36.5710873,57.8630117 36.429869,57.8630117 36.2894476,57.8767852 C36.2618734,57.8793477 36.2350961,57.8844727 36.2078406,57.8883164 C36.1662402,57.8939219 36.1249585,57.899207 36.0835175,57.9075352 C36.0510022,57.9137812 36.0194432,57.9225898 35.9875655,57.9301172 C35.9523406,57.9387656 35.9167969,57.9470938 35.8818908,57.9575039 C35.8493755,57.9672734 35.8174978,57.9788047 35.7857795,57.9901758 C35.7521485,58.0018672 35.7186769,58.0133984 35.685524,58.0270117 C35.6546026,58.0396641 35.6244782,58.053918 35.5941943,58.0678516 C35.5613603,58.0830664 35.5285262,58.0982812 35.4963297,58.1152578 C35.4668428,58.1306328 35.4384716,58.1476094 35.409941,58.1644258 C35.3787009,58.1826836 35.3476201,58.2009414 35.3170175,58.2209609 C35.2881681,58.2398594 35.2607533,58.2601992 35.2330197,58.2802188 C35.2046485,58.3008789 35.1764367,58.3213789 35.1490218,58.3433203 C35.1204913,58.3663828 35.092917,58.3907266 35.0656616,58.4153906 C35.0479694,58.4312461 35.029321,58.4451797 35.0119476,58.4616758 L29.4593253,63.741707 C28.5908166,64.5676328 28.5528821,65.9448164 29.3748493,66.8178281 C30.1968166,67.6905195 31.5673996,67.728957 32.4362271,66.9027109 L34.3348646,65.0971094 L34.3348646,69.7060859 C31.9194891,70.5957539 30.191238,72.9292305 30.191238,75.6606953 C30.191238,79.1561055 33.0215022,82 36.5003188,82 C39.9791354,82 42.8093996,79.1561055 42.8093996,75.6606953 C42.8093996,72.9292305 41.0811485,70.5955938 38.6657729,69.7060859 L38.6657729,65.0971094 L40.5644105,66.9027109 C40.9832838,67.3008594 41.5183515,67.498332 42.0524629,67.498332 C42.6267402,67.498332 43.1999017,67.2702695 43.6256288,66.8181484 C44.4475961,65.945457 44.4099803,64.5682734 43.5411528,63.7420273 L37.9888493,58.4618359 Z M36.5003188,77.6482344 C35.4096223,77.6482344 34.5221463,76.7564844 34.5221463,75.6606953 C34.5221463,74.6254453 35.3143079,73.7732539 36.3214847,73.682125 C36.3806179,73.6869297 36.4399105,73.6912539 36.5001594,73.6912539 C36.5604083,73.6912539 36.6198603,73.6870898 36.6788341,73.682125 C37.6860109,73.7732539 38.4781725,74.625125 38.4781725,75.6606953 C38.4784913,76.7568047 37.5910153,77.6482344 36.5003188,77.6482344 Z" id="Shape"></path>
                        <path d="M50.9324825,31.5097812 C50.928179,31.5448555 50.9240349,31.5796094 50.9211659,31.6148437 C50.9186157,31.6502383 50.9175,31.6856328 50.9163843,31.7208672 C50.9155873,31.7553008 50.914631,31.7894141 50.9152686,31.8238477 C50.9159061,31.859082 50.9182969,31.8941562 50.9206878,31.9292305 C50.9230786,31.9638242 50.9254694,31.998418 50.9296135,32.0330117 C50.9337576,32.0674453 50.9393362,32.1010781 50.9449148,32.1350312 C50.9508122,32.1697852 50.9563908,32.2046992 50.9637227,32.239293 C50.9710546,32.2734062 50.9804585,32.3070391 50.9895437,32.3406719 C50.9984694,32.3741445 51.006917,32.407457 51.0174367,32.4406094 C51.0293908,32.4776055 51.043417,32.5136406 51.0571245,32.5498359 C51.0681223,32.5785039 51.077845,32.6076523 51.0902773,32.6361602 C51.1109978,32.6845273 51.1345873,32.7314531 51.158655,32.7782187 C51.1663057,32.792793 51.1720437,32.8080078 51.1800131,32.822582 C51.1806507,32.8237031 51.1814476,32.8245039 51.1819258,32.8257852 C51.2246419,32.9034609 51.2730961,32.9776133 51.3248974,33.0496836 C51.3392424,33.069543 51.3537467,33.0889219 51.3684105,33.1079805 C51.4143144,33.1678789 51.4630873,33.2252148 51.5152074,33.2801484 C51.5241332,33.2894375 51.532262,33.2996875 51.5411878,33.3091367 C51.600321,33.3691953 51.6642358,33.4249297 51.7307009,33.4779414 C51.7495087,33.4931562 51.7689541,33.5070898 51.788559,33.5216641 C51.8421135,33.5617031 51.8977402,33.5991797 51.9552795,33.6340937 C51.9732904,33.6449844 51.9905044,33.6566758 52.0088341,33.6669258 C52.0823122,33.7088867 52.1581812,33.7471641 52.2377162,33.7807969 C52.2523799,33.787043 52.2678406,33.7916875 52.2829825,33.7977734 C52.3293646,33.8161914 52.3755873,33.8349297 52.4238821,33.8504648 L59.7106528,36.1741719 C59.9285371,36.2435195 60.149131,36.2766719 60.3662183,36.2766719 C61.2846157,36.2766719 62.1371856,35.6848945 62.4296638,34.7583906 C62.7913166,33.6129531 62.1604563,32.3896797 61.0206681,32.026125 L58.5563603,31.2403984 L62.5775764,29.0251172 C63.7036572,29.9927812 65.1517031,30.5515664 66.6813559,30.5515664 C67.7443188,30.5515664 68.799631,30.2768984 69.7336485,29.7575117 C72.7770153,28.0645 73.8822162,24.1989687 72.1971594,21.1407852 C71.0860611,19.1239375 68.9695393,17.8713555 66.6738646,17.8713555 C65.6109017,17.8713555 64.5554301,18.1460234 63.6215721,18.6654102 C62.1473865,19.4857305 61.0791638,20.8334453 60.6137489,22.4611133 C60.351714,23.3778477 60.2986376,24.3214883 60.4481441,25.2356602 L56.424059,27.452543 L57.0834498,24.8812344 C57.3818253,23.7175391 56.6849782,22.5311016 55.5268603,22.2311289 C54.3676266,21.9308359 53.1879913,22.6316797 52.8896157,23.7952148 L50.981893,31.2339922 C50.9763144,31.2557734 50.9734454,31.2772344 50.9685044,31.2990156 C50.9602162,31.3353711 50.9524061,31.3717266 50.9460306,31.4082422 C50.9409301,31.441875 50.9366266,31.4758281 50.9324825,31.5097812 Z M64.7772991,23.6626055 C64.9232991,23.1523477 65.2580153,22.7298555 65.7204017,22.4726445 C66.0179803,22.307043 66.3391485,22.2232812 66.6746616,22.2232812 C67.3957358,22.2232812 68.0603865,22.6163047 68.4089694,23.2487617 C68.9371834,24.207457 68.5906725,25.4193594 67.6365721,25.9502773 C67.3389934,26.1158789 67.0178253,26.1996406 66.6823122,26.1996406 C65.9609192,26.1996406 65.2965873,25.8066172 64.9480044,25.174 C64.6918668,24.709707 64.6312991,24.1728633 64.7772991,23.6626055 Z" id="Shape"></path>
                        <path d="M22.0687926,50.4849336 C22.0729367,50.4503398 22.0772402,50.4159063 22.0797904,50.3811523 C22.0823406,50.3452773 22.0832969,50.3095625 22.0840939,50.2736875 C22.0848908,50.2397344 22.0858472,50.2059414 22.0852096,50.1721484 C22.0844127,50.1362734 22.0817031,50.1007187 22.0791528,50.0653242 C22.076762,50.0313711 22.0743712,49.9972578 22.0705459,49.9633047 C22.0664017,49.9285508 22.060345,49.8941172 22.0544476,49.8595234 C22.0485502,49.8250898 22.043131,49.7909766 22.0357991,49.7568633 C22.0281485,49.7221094 22.0184258,49.6881562 22.0091812,49.6538828 C22.0002555,49.6210508 21.9921266,49.5878984 21.981607,49.5553867 C21.9690153,49.5166289 21.9540328,49.478832 21.939369,49.440875 C21.9290087,49.4139688 21.9199236,49.3867422 21.9084476,49.3596758 C21.8525022,49.2299492 21.7844432,49.1061484 21.7047489,48.9897148 C21.6883319,48.9655312 21.6701616,48.9434297 21.6527882,48.9200469 C21.6285611,48.887375 21.6046528,48.8547031 21.5786725,48.8234727 C21.5568362,48.7973672 21.5334061,48.7730234 21.5104541,48.7480391 C21.4863865,48.7217734 21.4626376,48.6953477 21.4372948,48.6702031 C21.4125895,48.6460195 21.3870873,48.6234375 21.3612664,48.6005352 C21.3351266,48.5769922 21.3088275,48.5532891 21.2814127,48.5308672 C21.2552729,48.5095664 21.2278581,48.4900273 21.2009214,48.4700078 C21.1719127,48.448707 21.1430633,48.4274062 21.1129389,48.4073867 C21.0852052,48.3888086 21.0566747,48.3721523 21.0279847,48.3551758 C20.9970633,48.3367578 20.9659825,48.3181797 20.933786,48.3012031 C20.9035022,48.2850273 20.8725808,48.2704531 20.8415,48.2558789 C20.809941,48.2408242 20.7782227,48.2260898 20.7457074,48.2126367 C20.711917,48.1987031 20.6776485,48.1865312 20.6432205,48.1743594 C20.6207467,48.1663516 20.5992293,48.1567422 20.5762773,48.149375 L13.2895066,45.825668 C12.1492402,45.461793 10.9321485,46.0961719 10.5703362,47.2414492 C10.208524,48.3868867 10.8395437,49.6101602 11.9793319,49.9737148 L14.4708952,50.7684102 L10.4550983,53.0024297 C9.32455459,52.0174687 7.86280131,51.4485937 6.3186441,51.4485937 C5.25568122,51.4485937 4.200369,51.7232617 3.26635153,52.2426484 C0.222984716,53.9356602 -0.882216157,57.8011914 0.802840611,60.859375 C1.91393886,62.8762227 4.0304607,64.1288047 6.32613537,64.1288047 C7.38909825,64.1288047 8.44456987,63.8541367 9.37842795,63.33475 C10.8526135,62.5144297 11.9208362,61.1667148 12.3862511,59.5390469 C12.6443013,58.6362461 12.6989716,57.7078203 12.5579127,56.8067812 L16.5687686,54.5753242 L15.9165502,57.1189258 C15.6181747,58.2826211 16.3150218,59.4690586 17.4731397,59.7690312 C17.6543646,59.815957 17.8362271,59.8383789 18.0149017,59.8383789 C18.9792031,59.8383789 19.8585502,59.186543 20.1103843,58.2049453 L22.018107,50.766168 C22.0240044,50.7429453 22.0271921,50.7198828 22.032452,50.6965 C22.0404214,50.6603047 22.0485502,50.6244297 22.0547664,50.5879141 C22.0605044,50.5539609 22.0646485,50.5193672 22.0687926,50.4849336 Z M8.22365721,58.3375547 C8.07765721,58.8478125 7.74294105,59.2703047 7.28055459,59.5275156 C6.98297598,59.6931172 6.66180786,59.7768789 6.32629476,59.7768789 C5.60522052,59.7768789 4.94056987,59.3838555 4.5919869,58.7513984 C4.06377293,57.7927031 4.41028384,56.5808008 5.36438428,56.0498828 C5.66196288,55.8842813 5.983131,55.8005195 6.3186441,55.8005195 C7.04003712,55.8005195 7.704369,56.193543 8.05295197,56.8261602 C8.30893013,57.2904531 8.36933843,57.8272969 8.22365721,58.3375547 Z" id="Shape"></path>
                        <path d="M69.734286,52.2426484 C68.8002686,51.7231016 67.7451157,51.4485937 66.6819934,51.4485937 C65.1378362,51.4485937 63.676083,52.0176289 62.5455393,53.0024297 L58.5297424,50.7684102 L61.0213057,49.9737148 C62.1612533,49.6101602 62.7919541,48.3870469 62.4303013,47.2414492 C62.0684891,46.0960117 60.851238,45.4625937 59.711131,45.825668 L52.4243603,48.149375 C52.403321,48.1561016 52.3837162,48.1650703 52.363155,48.1722773 C52.3261769,48.1854102 52.2890393,48.1983828 52.2526987,48.2135977 C52.2225742,48.2259297 52.1935655,48.2398633 52.1643974,48.2536367 C52.1307664,48.269332 52.0974541,48.2850273 52.0647795,48.3023242 C52.0348144,48.3181797 52.0062838,48.3354766 51.9774345,48.3526133 C51.9466725,48.3708711 51.9159105,48.3889687 51.8861048,48.4088281 C51.857893,48.4275664 51.8311157,48.4472656 51.8040197,48.4672852 C51.7750109,48.4885859 51.7460022,48.5095664 51.7181092,48.5323086 C51.6922882,48.5531289 51.6679017,48.5755508 51.6431965,48.5976523 C51.6161004,48.6218359 51.588845,48.6456992 51.5628646,48.6711641 C51.5386376,48.6950273 51.5161638,48.720332 51.4932118,48.7453164 C51.4691441,48.7714219 51.444917,48.7967266 51.4219651,48.8241133 C51.3967817,48.8542227 51.3738297,48.8859336 51.350559,48.9171641 C51.3323886,48.9415078 51.313262,48.9648906 51.296048,48.9900352 C51.2165131,49.1064687 51.1482948,49.2301094 51.0925087,49.3596758 C51.0810328,49.3864219 51.0719476,49.4136484 51.0615873,49.440875 C51.0469236,49.4786719 51.031941,49.5166289 51.0193493,49.5553867 C51.0086703,49.5880586 51.0007009,49.6208906 50.9917751,49.6538828 C50.9825306,49.6879961 50.9726485,49.7222695 50.9651572,49.7568633 C50.9575066,49.7912969 50.9520873,49.8255703 50.9465087,49.8600039 C50.9406114,49.8944375 50.9345546,49.9285508 50.9304105,49.9631445 C50.9262664,49.9972578 50.9241943,50.0312109 50.9214847,50.0654844 C50.9189345,50.1008789 50.9162249,50.1364336 50.9154279,50.1721484 C50.914631,50.2061016 50.9155873,50.2398945 50.9165437,50.2736875 C50.9173406,50.3094023 50.9182969,50.3452773 50.9208472,50.3811523 C50.9233974,50.4159062 50.9277009,50.4503398 50.931845,50.4849336 C50.9359891,50.5193672 50.9401332,50.5536406 50.9458712,50.5882344 C50.9520873,50.62475 50.9602162,50.660625 50.9681856,50.6968203 C50.9734454,50.720043 50.9766332,50.7434258 50.9825306,50.7664883 L52.8902533,58.2052656 C53.1420873,59.1868633 54.0214345,59.8386992 54.9857358,59.8386992 C55.1645699,59.8386992 55.3464323,59.8162773 55.5274978,59.7693516 C56.6856157,59.4695391 57.3824629,58.2829414 57.0840873,57.1194063 L56.431869,54.5758047 L60.4427249,56.8072617 C60.3018253,57.7083008 60.3563362,58.6367266 60.6143865,59.5395273 C61.0794825,61.166875 62.148024,62.5149102 63.6222096,63.3352305 C64.5559083,63.8546172 65.6112205,64.1292852 66.6741834,64.1292852 L66.6743428,64.1292852 C68.9700175,64.1292852 71.0862205,62.8767031 72.1973188,60.8598555 C73.8828537,57.8011914 72.7778122,53.9356602 69.734286,52.2426484 Z M68.4089694,58.7513984 C68.0603865,59.3841758 67.3958952,59.7768789 66.674821,59.7768789 C66.3389891,59.7768789 66.017821,59.692957 65.7202424,59.5275156 C65.2578559,59.2703047 64.9231397,58.8474922 64.7771397,58.3375547 C64.6311397,57.8272969 64.6918668,57.2904531 64.947845,56.826 C65.2964279,56.193543 65.9609192,55.8005195 66.6821528,55.8005195 C67.0178253,55.8005195 67.3389934,55.8844414 67.6364127,56.0498828 C68.5906725,56.5808008 68.9371834,57.7927031 68.4089694,58.7513984 Z" id="Shape"></path>
                        <path d="M21.9812882,32.4447734 C21.9919672,32.4121016 21.9999367,32.3792695 22.0088624,32.3462773 C22.018107,32.3121641 22.0279891,32.2778906 22.0354803,32.2432969 C22.043131,32.2091836 22.0482314,32.17475 22.0541288,32.1406367 C22.0600262,32.106043 22.066083,32.0716094 22.0702271,32.0368555 C22.0743712,32.0029023 22.0764432,31.9689492 22.0788341,31.9348359 C22.0813843,31.8994414 22.0840939,31.8638867 22.0848908,31.8280117 C22.0856878,31.7940586 22.0847314,31.7602656 22.0837751,31.7264727 C22.0829782,31.6907578 22.0820218,31.6548828 22.0794716,31.6190078 C22.0769214,31.5842539 22.0726179,31.5498203 22.0684738,31.5152266 C22.0643297,31.480793 22.0601856,31.4465195 22.0544476,31.4119258 C22.0482314,31.3754102 22.0401026,31.3395352 22.0321332,31.3033398 C22.0268734,31.2801172 22.0236856,31.2567344 22.0177882,31.2336719 L20.1100655,23.7948945 C19.81169,22.6311992 18.6310983,21.9308359 17.4726616,22.2308086 C16.3145437,22.5306211 15.6176965,23.7172188 15.9160721,24.8807539 L16.5682904,27.4243555 L12.5574345,25.1928984 C12.6983341,24.2918594 12.6438231,23.3634336 12.3857729,22.4606328 C11.9206769,20.8332852 10.8521354,19.48525 9.37794978,18.6649297 C8.44425109,18.1453828 7.38877948,17.870875 6.32565721,17.870875 C4.02998253,17.870875 1.9134607,19.1236172 0.802362445,21.1403047 C-0.882534934,24.1984883 0.22250655,28.0638594 3.26587336,29.7570312 C4.19957205,30.276418 5.25504367,30.5510859 6.31784716,30.5510859 L6.31832533,30.5510859 C7.86248253,30.5510859 9.32391703,29.9823711 10.4546201,28.99725 L14.470417,31.2312695 L11.9788537,32.0259648 C10.8389061,32.3895195 10.2082052,33.6126328 10.5698581,34.7582305 C10.862655,35.6847344 11.7149061,36.2765117 12.6333035,36.2765117 C12.8502314,36.2765117 13.0709847,36.2435195 13.288869,36.1740117 L20.5756397,33.8503047 C20.6221812,33.8355703 20.66681,33.8173125 20.7115983,33.799375 C20.7273777,33.7931289 20.7436354,33.7880039 20.7594148,33.7815977 C20.838631,33.7482852 20.9146594,33.710168 20.9881376,33.6685273 C21.0055109,33.6587578 21.0220873,33.6473867 21.0393013,33.6369766 C21.0973188,33.6017422 21.1532642,33.5642656 21.2071376,33.5242266 C21.226583,33.5096523 21.2461878,33.4955586 21.265155,33.4803437 C21.3316201,33.427332 21.3960131,33.3717578 21.4553057,33.3116992 C21.4618406,33.3051328 21.4675786,33.2976055 21.4741135,33.2910391 C21.5286245,33.2345039 21.57931,33.1744453 21.6274454,33.112625 C21.6421092,33.0934062 21.6566135,33.0743477 21.6707991,33.0544883 C21.7643603,32.9252422 21.8445328,32.7868672 21.9076507,32.6401641 C21.9191266,32.613418 21.9282118,32.5861914 21.9385721,32.5589648 C21.9538734,32.5213281 21.9690153,32.4835312 21.9812882,32.4447734 Z M6.31896288,26.1998008 C5.983131,26.1998008 5.66196288,26.1158789 5.36438428,25.9504375 C4.41028384,25.4195195 4.06377293,24.2076172 4.5919869,23.2489219 C4.94056987,22.6164648 5.60522052,22.2234414 6.32629476,22.2234414 C6.66196725,22.2234414 6.98313537,22.3073633 7.28055459,22.4728047 C7.74294105,22.7300156 8.07765721,23.1528281 8.22365721,23.6627656 C8.36965721,24.1730234 8.30893013,24.7098672 8.05295197,25.1743203 C7.704369,25.8067773 7.03971834,26.1998008 6.31896288,26.1998008 Z" id="Shape"></path>
                    </g>
                </g>
            </g>
        </g>
    </g>
</svg>