<?xml version="1.0" encoding="UTF-8"?>
<svg width="82px" height="82px" viewBox="0 0 82 82" version="1.1" xmlns="http://www.w3.org/2000/svg" xmlns:xlink="http://www.w3.org/1999/xlink">
    <!-- Generator: sketchtool 41.2 (35397) - http://www.bohemiancoding.com/sketch -->
    <title>F9BC52EA-0466-442B-BBED-2755E4DE9249</title>
    <desc>Created with sketchtool.</desc>
    <defs></defs>
    <g id="Page-2" stroke="none" stroke-width="1" fill="none" fill-rule="evenodd">
        <g id="Artboard-Copy" transform="translate(-424.000000, -609.000000)">
            <g id="sun" transform="translate(424.000000, 609.000000)">
                <g id="Layer_1">
                    <path d="M41,64.4579258 C34.9894961,64.4579258 28.9809141,62.1708945 24.4049297,57.5950703 C19.8359922,53.0261328 17.3968125,46.9509258 17.5366289,40.4889414 C17.6682773,34.4145352 20.107457,28.7022422 24.4049297,24.4047695 C33.5552969,15.2544023 48.4442227,15.2542422 57.5949102,24.4047695 C58.4560703,25.2659297 58.4560703,26.6621719 57.5949102,27.5236523 C56.73375,28.3848125 55.3375078,28.3848125 54.4760273,27.5236523 C47.045418,20.0927227 34.9541016,20.0927227 27.5231719,27.5236523 C24.033207,31.013457 22.0522344,35.6519023 21.9455703,40.5843945 C21.8320195,45.8323945 23.8126719,50.7658477 27.5231719,54.4763477 C34.9541016,61.9072773 47.0452578,61.9072773 54.4760273,54.4763477 C58.0760195,50.8765156 60.0582734,46.0904063 60.0581133,40.9996797 C60.0581133,39.7816914 61.0453164,38.7944883 62.2633047,38.7944883 C63.481293,38.7944883 64.4684961,39.7816914 64.4684961,40.9996797 C64.4686562,47.2686758 62.0275547,53.1625859 57.5945898,57.5953906 C53.0203672,62.1696133 47.0092227,64.4579258 41,64.4579258 Z" id="Shape" fill="#FFC61B"></path>
                    <circle id="Oval" fill="#FEE187" cx="41" cy="41" r="13.4579297"></circle>
                    <g id="Group" fill="#FFC61B">
                        <path d="M41,56.6629609 C36.8162383,56.6629609 32.8831211,55.0336914 29.9245547,52.0752852 C26.9663086,49.1170391 25.3370391,45.1837617 25.3370391,41 C25.3370391,36.8162383 26.9663086,32.8831211 29.9247148,29.9245547 C32.8829609,26.9663086 36.8162383,25.3370391 41,25.3370391 C45.1837617,25.3370391 49.1168789,26.9663086 52.0754453,29.9247148 C55.0336914,32.8829609 56.6629609,36.8162383 56.6629609,41 C56.6629609,45.1837617 55.0336914,49.1168789 52.0752852,52.0754453 C49.1168789,55.0336914 45.1837617,56.6629609 41,56.6629609 Z M41,29.7474219 C37.9945078,29.7474219 35.1687109,30.9180039 33.0434375,33.0432773 C30.9180039,35.1687109 29.7474219,37.9945078 29.7474219,41 C29.7474219,44.0054922 30.9180039,46.8312891 33.0432773,48.9565625 C35.1687109,51.0819961 37.9943477,52.252418 40.9998398,52.252418 C44.005332,52.252418 46.8311289,51.0818359 48.9564023,48.9565625 C51.0816758,46.8312891 52.2525781,44.0054922 52.2525781,41 C52.2525781,37.9945078 51.0819961,35.1687109 48.9567227,33.0434375 C46.8312891,30.9180039 44.0054922,29.7474219 41,29.7474219 Z" id="Shape"></path>
                        <path d="M41,13.8213242 C39.7820117,13.8213242 38.7948086,12.8341211 38.7948086,11.6161328 L38.7948086,2.20519141 C38.7948086,0.987203125 39.7820117,0 41,0 C42.2179883,0 43.2051914,0.987203125 43.2051914,2.20519141 L43.2051914,11.6161328 C43.2051914,12.8341211 42.2179883,13.8213242 41,13.8213242 Z" id="Shape"></path>
                        <path d="M41,82 C39.7820117,82 38.7948086,81.0127969 38.7948086,79.7948086 L38.7948086,70.3838672 C38.7948086,69.1658789 39.7820117,68.1786758 41,68.1786758 C42.2179883,68.1786758 43.2051914,69.1658789 43.2051914,70.3838672 L43.2051914,79.7948086 C43.2051914,81.0127969 42.2179883,82 41,82 Z" id="Shape"></path>
                        <path d="M61.7772305,22.4279609 C61.213,22.4279609 60.6484492,22.2125508 60.2179492,21.7820508 C59.3567891,20.9208906 59.3567891,19.5246484 60.2179492,18.663168 L62.2269492,16.654168 C63.0881094,15.7933281 64.4843516,15.7933281 65.345832,16.654168 C66.2069922,17.5153281 66.2069922,18.9115703 65.345832,19.7730508 L63.336832,21.7820508 C62.9061719,22.2123906 62.3416211,22.4279609 61.7772305,22.4279609 Z" id="Shape"></path>
                        <path d="M18.2134492,65.9914219 C17.6490586,65.9914219 17.084668,65.7760117 16.654168,65.3455117 C15.7930078,64.4843516 15.7930078,63.0881094 16.654168,62.2266289 L18.663168,60.2176289 C19.5243281,59.3567891 20.9205703,59.3567891 21.7820508,60.2176289 C22.6432109,61.0787891 22.6432109,62.4750313 21.7820508,63.3365117 L19.7730508,65.3455117 C19.3423906,65.7761719 18.7778398,65.9914219 18.2134492,65.9914219 Z" id="Shape"></path>
                        <path d="M20.2227695,22.4279609 C19.6583789,22.4279609 19.0939883,22.2125508 18.6634883,21.7820508 L16.6544883,19.7730508 C15.7933281,18.9118906 15.7933281,17.5156484 16.6544883,16.654168 C17.5156484,15.7933281 18.9118906,15.7933281 19.7733711,16.654168 L21.7823711,18.663168 C22.6435313,19.5243281 22.6435313,20.9205703 21.7823711,21.7820508 C21.3513906,22.2123906 20.787,22.4279609 20.2227695,22.4279609 Z" id="Shape"></path>
                        <path d="M63.7862305,65.9914219 C63.222,65.9914219 62.6574492,65.7760117 62.2269492,65.3455117 L60.2179492,63.3365117 C59.3567891,62.4753516 59.3567891,61.0791094 60.2179492,60.2176289 C61.0791094,59.3567891 62.4753516,59.3567891 63.336832,60.2176289 L65.345832,62.2266289 C66.2069922,63.0877891 66.2069922,64.4840313 65.345832,65.3455117 C64.9151719,65.7761719 64.3507813,65.9914219 63.7862305,65.9914219 Z" id="Shape"></path>
                        <path d="M79.7948086,43.2051914 L70.3838672,43.2051914 C69.1658789,43.2051914 68.1786758,42.2179883 68.1786758,41 C68.1786758,39.7820117 69.1658789,38.7948086 70.3838672,38.7948086 L79.7948086,38.7948086 C81.0127969,38.7948086 82,39.7820117 82,41 C82,42.2179883 81.0127969,43.2051914 79.7948086,43.2051914 Z" id="Shape"></path>
                        <path d="M11.6161328,43.2051914 L2.20519141,43.2051914 C0.987203125,43.2051914 0,42.2179883 0,41 C0,39.7820117 0.987203125,38.7948086 2.20519141,38.7948086 L11.6161328,38.7948086 C12.8341211,38.7948086 13.8213242,39.7820117 13.8213242,41 C13.8213242,42.2179883 12.8341211,43.2051914 11.6161328,43.2051914 Z" id="Shape"></path>
                    </g>
                </g>
            </g>
        </g>
    </g>
</svg>