<?xml version="1.0" encoding="UTF-8"?>
<svg width="99px" height="89px" viewBox="0 0 99 89" version="1.1" xmlns="http://www.w3.org/2000/svg" xmlns:xlink="http://www.w3.org/1999/xlink">
    <!-- Generator: sketchtool 41.2 (35397) - http://www.bohemiancoding.com/sketch -->
    <title>F90BEF0F-FBA0-4811-B501-4072D14D8903</title>
    <desc>Created with sketchtool.</desc>
    <defs></defs>
    <g id="Page-2" stroke="none" stroke-width="1" fill="none" fill-rule="evenodd">
        <g id="Artboard" transform="translate(-790.000000, -217.000000)">
            <g id="Group-2" transform="translate(790.000000, 217.000000)">
                <g id="Group" transform="translate(0.000000, 72.428571)" font-size="14.9068323" fill="#F7CA18">
                    <text id="Weather" font-family="Quicksand-Bold, Quicksand" font-weight="bold">
                        <tspan x="0" y="15">Weather</tspan>
                    </text>
                    <text id="Fetch" font-family="Quicksand-Regular, Quicksand" font-weight="normal">
                        <tspan x="62.1118012" y="15">Fetch</tspan>
                    </text>
                </g>
                <path d="M50.0632107,0.557859514 L53.4285829,6.33445855 L46.6978386,6.33445855 L50.0632107,0.557859514 Z M69.443071,6.83560687 L68.7703145,13.4870898 L63.325028,9.53085752 L69.443071,6.83560687 Z M81.4204833,23.2709628 L76.9665683,28.2566892 L74.8866539,21.855371 L81.4204833,23.2709628 Z M81.4204833,43.58618 L74.8866539,45.0017719 L76.9665683,38.6004536 L81.4204833,43.58618 Z M69.443071,60.021536 L63.325028,57.3262853 L68.7703145,53.3700531 L69.443071,60.021536 Z M50.0632107,66.2992833 L46.6978386,60.5226843 L53.4285829,60.5226843 L50.0632107,66.2992833 Z M30.6833505,60.021536 L31.3561069,53.3700531 L36.8013935,57.3262853 L30.6833505,60.021536 Z M18.7059382,43.58618 L23.1598531,38.6004536 L25.2397675,45.0017719 L18.7059382,43.58618 Z M18.7059382,23.2709628 L25.2397675,21.855371 L23.1598531,28.2566892 L18.7059382,23.2709628 Z M30.6833505,6.83560687 L36.8013935,9.53085752 L31.3561069,13.4870898 L30.6833505,6.83560687 Z" id="Triangle" fill="#FEE187"></path>
                <path d="M50.310559,14.2380952 C50.996627,14.2380952 51.552795,13.6837811 51.552795,13 C51.552795,12.3162189 50.996627,11.7619048 50.310559,11.7619048 C49.624491,11.7619048 49.068323,12.3162189 49.068323,13 C49.068323,13.6837811 49.624491,14.2380952 50.310559,14.2380952 Z M58.0271559,15.7653884 C58.6586849,16.0334565 59.387228,15.7405198 59.6544026,15.111096 C59.9215771,14.4816721 59.6262096,13.7541112 58.9946806,13.486043 C58.3631517,13.2179749 57.6346085,13.5109116 57.367434,14.1403354 C57.1002594,14.7697593 57.395627,15.4973202 58.0271559,15.7653884 Z M64.5873816,20.1308279 C65.072505,20.6159512 65.8577344,20.6172621 66.3412407,20.1337558 C66.824747,19.6502496 66.8234361,18.8650201 66.3383127,18.3798968 C65.8531894,17.8947734 65.0679599,17.8934625 64.5844537,18.3769688 C64.1009474,18.8604751 64.1022583,19.6457045 64.5873816,20.1308279 Z M68.9600356,26.6479168 C69.2170412,27.2840279 69.9393366,27.5920482 70.5733274,27.3358993 C71.2073182,27.0797504 71.5129251,26.3564307 71.2559195,25.7203195 C70.9989139,25.0842083 70.2766186,24.776188 69.6426278,25.0323369 C69.0086369,25.2884859 68.70303,26.0118056 68.9600356,26.6479168 Z M70.5010352,34.3571429 C70.5010352,35.0432109 71.0553493,35.5993789 71.7391304,35.5993789 C72.4229116,35.5993789 72.9772257,35.0432109 72.9772257,34.3571429 C72.9772257,33.6710748 72.4229116,33.1149068 71.7391304,33.1149068 C71.0553493,33.1149068 70.5010352,33.6710748 70.5010352,34.3571429 Z M68.9683049,42.0464052 C68.7002368,42.6779342 68.9931734,43.4064773 69.6225973,43.6736519 C70.2520211,43.9408264 70.9795821,43.6454589 71.2476502,43.0139299 C71.5157184,42.382401 71.2227817,41.6538579 70.5933578,41.3866833 C69.963934,41.1195087 69.236373,41.4148763 68.9683049,42.0464052 Z M64.5873816,48.5834579 C64.1022583,49.0685812 64.1009474,49.8538106 64.5844537,50.3373169 C65.0679599,50.8208232 65.8531894,50.8195123 66.3383127,50.3343889 C66.8234361,49.8492656 66.824747,49.0640361 66.3412407,48.5805299 C65.8577344,48.0970236 65.072505,48.0983345 64.5873816,48.5834579 Z M58.0471196,52.9406281 C57.4110084,53.1976337 57.1029882,53.919929 57.3591371,54.5539198 C57.615286,55.1879106 58.3386057,55.4935175 58.9747169,55.2365119 C59.6108281,54.9795063 59.9188484,54.257211 59.6626995,53.6232202 C59.4065505,52.9892294 58.6832308,52.6836225 58.0471196,52.9406281 Z M50.310559,54.4761905 C49.624491,54.4761905 49.068323,55.0305046 49.068323,55.7142857 C49.068323,56.3980668 49.624491,56.952381 50.310559,56.952381 C50.996627,56.952381 51.552795,56.3980668 51.552795,55.7142857 C51.552795,55.0305046 50.996627,54.4761905 50.310559,54.4761905 Z M42.5939621,52.9488973 C41.9624332,52.6808292 41.23389,52.9737659 40.9667155,53.6031897 C40.6995409,54.2326136 40.9949085,54.9601746 41.6264374,55.2282427 C42.2579663,55.4963108 42.9865095,55.2033741 43.253684,54.5739503 C43.5208586,53.9445265 43.225491,53.2169655 42.5939621,52.9488973 Z M36.0337364,48.5834579 C35.548613,48.0983345 34.7633836,48.0970236 34.2798773,48.5805299 C33.7963711,49.0640361 33.797682,49.8492656 34.2828053,50.3343889 C34.7679286,50.8195123 35.5531581,50.8208232 36.0366644,50.3373169 C36.5201706,49.8538106 36.5188597,49.0685812 36.0337364,48.5834579 Z M31.6528131,42.0464052 C31.384745,41.4148763 30.657184,41.1195087 30.0277602,41.3866833 C29.3983363,41.6538579 29.1053996,42.382401 29.3734678,43.0139299 C29.6415359,43.6454589 30.3690969,43.9408264 30.9985207,43.6736519 C31.6279446,43.4064773 31.9208813,42.6779342 31.6528131,42.0464052 Z M30.1200828,34.3571429 C30.1200828,33.6710748 29.5657687,33.1149068 28.8819876,33.1149068 C28.1982065,33.1149068 27.6438923,33.6710748 27.6438923,34.3571429 C27.6438923,35.0432109 28.1982065,35.5993789 28.8819876,35.5993789 C29.5657687,35.5993789 30.1200828,35.0432109 30.1200828,34.3571429 Z M31.6528131,26.6678805 C31.9208813,26.0363515 31.6279446,25.3078084 30.9985207,25.0406338 C30.3690969,24.7734593 29.6415359,25.0688268 29.3734678,25.7003558 C29.1053996,26.3318847 29.3983363,27.0604278 30.0277602,27.3276024 C30.657184,27.594777 31.384745,27.2994094 31.6528131,26.6678805 Z M36.0337364,20.1308279 C36.5188597,19.6457045 36.5201706,18.8604751 36.0366644,18.3769688 C35.5531581,17.8934625 34.7679286,17.8947734 34.2828053,18.3798968 C33.797682,18.8650201 33.7963711,19.6502496 34.2798773,20.1337558 C34.7633836,20.6172621 35.548613,20.6159512 36.0337364,20.1308279 Z M42.5739984,15.7736576 C43.2101096,15.516652 43.5181298,14.7943567 43.2619809,14.1603659 C43.005832,13.5263751 42.2825123,13.2207682 41.6464011,13.4777738 C41.0102899,13.7347794 40.7022696,14.4570747 40.9584186,15.0910655 C41.2145675,15.7250563 41.9378872,16.0306632 42.5739984,15.7736576 Z" id="Oval" fill="#FEE187"></path>
                <ellipse id="Oval-Copy" stroke="#FEE187" stroke-width="1.86335404" fill="#FEE187" cx="50.310559" cy="34.047619" rx="16.7701863" ry="16.7142857"></ellipse>
            </g>
        </g>
    </g>
</svg>