<?xml version="1.0" encoding="UTF-8"?>
<svg width="82px" height="63px" viewBox="0 0 82 63" version="1.1" xmlns="http://www.w3.org/2000/svg" xmlns:xlink="http://www.w3.org/1999/xlink">
    <!-- Generator: sketchtool 41.2 (35397) - http://www.bohemiancoding.com/sketch -->
    <title>C3F43CF0-CD91-4867-9542-AB4573FF0158</title>
    <desc>Created with sketchtool.</desc>
    <defs></defs>
    <g id="Page-2" stroke="none" stroke-width="1" fill="none" fill-rule="evenodd">
        <g id="Artboard-Copy" transform="translate(-239.000000, -138.000000)">
            <g id="wind" transform="translate(239.000000, 138.000000)">
                <g id="Layer_1">
                    <path d="M13.9038047,39.4653426 L2.33555859,39.4653426 C1.04582031,39.4653426 0,38.4213655 0,37.1335431 C0,35.8457208 1.04582031,34.8017437 2.33555859,34.8017437 L13.9038047,34.8017437 C15.193543,34.8017437 16.2393633,35.8457208 16.2393633,37.1335431 C16.2393633,38.4213655 15.1937031,39.4653426 13.9038047,39.4653426 Z" id="Shape" fill="#FFC61B"></path>
                    <ellipse id="Oval" fill="#FEE187" cx="68.4860156" cy="48.2925381" rx="11.1773047" ry="11.1593147"></ellipse>
                    <g id="Group" fill="#FFC61B">
                        <path d="M68.4869766,34.8015838 C68.3846367,34.8015838 68.2832578,34.8070203 68.1813984,34.8092589 C68.1304688,34.8060609 68.0798594,34.8015838 68.0279688,34.8015838 L23.7144961,34.8015838 C22.4247578,34.8015838 21.3789375,35.8455609 21.3789375,37.1333832 C21.3789375,38.4212056 22.4247578,39.4651827 23.7144961,39.4651827 L58.2815,39.4651827 C56.2238125,41.8331193 54.9742734,44.9188401 54.9742734,48.2925381 C54.9742734,55.7314949 61.0360273,61.7836523 68.4868164,61.7836523 C75.9377656,61.7836523 81.9996797,55.7316548 81.9996797,48.2925381 C81.9996797,40.8534213 75.9382461,34.8015838 68.4869766,34.8015838 Z M68.4869766,57.1202132 C63.6116602,57.1202132 59.6455508,53.1603274 59.6455508,48.2928579 C59.6455508,43.4253883 63.6116602,39.4655025 68.4869766,39.4655025 C73.362293,39.4655025 77.3285625,43.4253883 77.3285625,48.2928579 C77.3285625,53.1603274 73.362293,57.1202132 68.4869766,57.1202132 Z" id="Shape"></path>
                        <path d="M68.3561289,30.0769036 L12.5794727,30.0769036 C11.2897344,30.0769036 10.2439141,29.0329264 10.2439141,27.7451041 C10.2439141,26.4572817 11.2897344,25.4133046 12.5794727,25.4133046 L68.3561289,25.4133046 C73.3038359,25.4133046 77.3287227,21.3948959 77.3287227,16.4551523 C77.3287227,11.5154086 73.3038359,7.497 68.3561289,7.497 C63.408582,7.497 59.3836953,11.5154086 59.3836953,16.4551523 C59.3836953,17.7429746 58.337875,18.7869518 57.0481367,18.7869518 C55.7583984,18.7869518 54.7125781,17.7429746 54.7125781,16.4551523 C54.7125781,8.94408122 60.8329492,2.83324112 68.3561289,2.83324112 C75.8793086,2.83324112 82,8.94392132 82,16.4549924 C82,23.9660635 75.8793086,30.0769036 68.3561289,30.0769036 Z" id="Shape"></path>
                        <path d="M21.6145273,20.783764 L2.33555859,20.783764 C1.04582031,20.783764 0,19.7397868 0,18.4519645 C0,17.1641421 1.04582031,16.120165 2.33555859,16.120165 L21.6145273,16.120165 C22.9042656,16.120165 23.9500859,17.1641421 23.9500859,18.4519645 C23.9500859,19.7397868 22.9042656,20.783764 21.6145273,20.783764 Z" id="Shape"></path>
                        <path d="M39.028957,20.783764 L31.4240977,20.783764 C30.1343594,20.783764 29.0885391,19.7397868 29.0885391,18.4519645 C29.0885391,17.1641421 30.1343594,16.120165 31.4240977,16.120165 L39.028957,16.120165 C42.1544063,16.120165 44.6975273,13.5814569 44.6975273,10.4610381 C44.6975273,7.34061929 42.1545664,4.80191117 39.028957,4.80191117 C35.9033477,4.80191117 33.360707,7.34061929 33.360707,10.4610381 C33.360707,11.7488604 32.3148867,12.7928376 31.0251484,12.7928376 C29.7354102,12.7928376 28.6895898,11.7488604 28.6895898,10.4610381 C28.6895898,4.76897208 33.3275547,0.138152284 39.0291172,0.138152284 C44.7306797,0.138152284 49.3688047,4.76897208 49.3688047,10.4610381 C49.3688047,16.1531041 44.7303594,20.783764 39.028957,20.783764 Z" id="Shape"></path>
                        <path d="M41.0299492,62.8618477 C35.8663516,62.8618477 31.6654531,58.6678706 31.6654531,53.5124239 C31.6654531,52.2246015 32.7112734,51.1806244 34.0010117,51.1806244 C35.29075,51.1806244 36.3365703,52.2246015 36.3365703,53.5124239 C36.3365703,56.0960635 38.4421445,58.1982487 41.0299492,58.1982487 C43.6177539,58.1982487 45.7233281,56.0960635 45.7233281,53.5124239 C45.7233281,50.9287843 43.6177539,48.826599 41.0299492,48.826599 L12.5794727,48.826599 C11.2897344,48.826599 10.2439141,47.7826218 10.2439141,46.4947995 C10.2439141,45.2069772 11.2897344,44.163 12.5794727,44.163 L41.0297891,44.163 C46.1933867,44.163 50.3942852,48.3569772 50.3942852,53.5124239 C50.3942852,58.6678706 46.1933867,62.8618477 41.0299492,62.8618477 Z" id="Shape"></path>
                    </g>
                </g>
            </g>
        </g>
    </g>
</svg>